solid KeroLOXEngine_WorkingCopy3
 facet normal 0 1 -0
  outer loop
   vertex 1.57187 0 0
   vertex 0.321869 0 0
   vertex 1.57187 0 0.01
  endloop
 endfacet
 facet normal 0 1 0
  outer loop
   vertex 1.57187 0 0.01
   vertex 0.321869 0 0
   vertex 0.321869 0 0.01
  endloop
 endfacet
 facet normal 1 0 0
  outer loop
   vertex 0.321869 0 0
   vertex 0.321869 0.198 0
   vertex 0.321869 0 0.01
  endloop
 endfacet
 facet normal 1 -0 0
  outer loop
   vertex 0.321869 0 0.01
   vertex 0.321869 0.198 0
   vertex 0.321869 0.198 0.01
  endloop
 endfacet
 facet normal -0.669455 0.742853 0
  outer loop
   vertex 0.29578 0.189184 0
   vertex 0.29578 0.189184 0.01
   vertex 0.298626 0.19175 0.01
  endloop
 endfacet
 facet normal -0.669455 0.742853 0
  outer loop
   vertex 0.29578 0.189184 0
   vertex 0.298626 0.19175 0.01
   vertex 0.298626 0.19175 0
  endloop
 endfacet
 facet normal -0.586731 0.809782 0
  outer loop
   vertex 0.298626 0.19175 0
   vertex 0.298626 0.19175 0.01
   vertex 0.301888 0.194113 0.01
  endloop
 endfacet
 facet normal -0.586731 0.809782 0
  outer loop
   vertex 0.298626 0.19175 0
   vertex 0.301888 0.194113 0.01
   vertex 0.301888 0.194113 0
  endloop
 endfacet
 facet normal -0.495029 0.868877 0
  outer loop
   vertex 0.301888 0.194113 0
   vertex 0.301888 0.194113 0.01
   vertex 0.305388 0.196107 0.01
  endloop
 endfacet
 facet normal -0.495029 0.868877 0
  outer loop
   vertex 0.301888 0.194113 0
   vertex 0.305388 0.196107 0.01
   vertex 0.305388 0.196107 0
  endloop
 endfacet
 facet normal -0.397461 0.917619 0
  outer loop
   vertex 0.305388 0.196107 0
   vertex 0.305388 0.196107 0.01
   vertex 0.309084 0.197708 0.01
  endloop
 endfacet
 facet normal -0.397461 0.917619 0
  outer loop
   vertex 0.305388 0.196107 0
   vertex 0.309084 0.197708 0.01
   vertex 0.309084 0.197708 0
  endloop
 endfacet
 facet normal -0.29516 0.955448 0
  outer loop
   vertex 0.309084 0.197708 0
   vertex 0.309084 0.197708 0.01
   vertex 0.312932 0.198897 0.01
  endloop
 endfacet
 facet normal -0.29516 0.955448 0
  outer loop
   vertex 0.309084 0.197708 0
   vertex 0.312932 0.198897 0.01
   vertex 0.312932 0.198897 0
  endloop
 endfacet
 facet normal -0.189355 0.981909 0
  outer loop
   vertex 0.312932 0.198897 0
   vertex 0.312932 0.198897 0.01
   vertex 0.316887 0.199659 0.01
  endloop
 endfacet
 facet normal -0.189355 0.981909 0
  outer loop
   vertex 0.312932 0.198897 0
   vertex 0.316887 0.199659 0.01
   vertex 0.316887 0.199659 0
  endloop
 endfacet
 facet normal -0.0812821 0.996691 0
  outer loop
   vertex 0.316887 0.199659 0
   vertex 0.316887 0.199659 0.01
   vertex 0.320901 0.199987 0.01
  endloop
 endfacet
 facet normal -0.0812821 0.996691 0
  outer loop
   vertex 0.316887 0.199659 0
   vertex 0.320901 0.199987 0.01
   vertex 0.320901 0.199987 0
  endloop
 endfacet
 facet normal 0.0211082 0.999777 -0
  outer loop
   vertex 0.320901 0.199987 0
   vertex 0.320901 0.199987 0.01
   vertex 0.322914 0.199944 0.01
  endloop
 endfacet
 facet normal 0.0211082 0.999777 0
  outer loop
   vertex 0.320901 0.199987 0
   vertex 0.322914 0.199944 0.01
   vertex 0.322914 0.199944 0
  endloop
 endfacet
 facet normal 0.186751 0.982407 -0
  outer loop
   vertex 0.322914 0.199944 0
   vertex 0.322914 0.199944 0.01
   vertex 0.32437 0.199667 0.01
  endloop
 endfacet
 facet normal 0.186751 0.982407 0
  outer loop
   vertex 0.322914 0.199944 0
   vertex 0.32437 0.199667 0.01
   vertex 0.32437 0.199667 0
  endloop
 endfacet
 facet normal 0.340698 0.940173 -0
  outer loop
   vertex 0.32437 0.199667 0
   vertex 0.32437 0.199667 0.01
   vertex 0.325833 0.199137 0.01
  endloop
 endfacet
 facet normal 0.340698 0.940173 0
  outer loop
   vertex 0.32437 0.199667 0
   vertex 0.325833 0.199137 0.01
   vertex 0.325833 0.199137 0
  endloop
 endfacet
 facet normal 0.395645 0.918403 -0
  outer loop
   vertex 0.325833 0.199137 0
   vertex 0.325833 0.199137 0.01
   vertex 0.331301 0.196782 0.01
  endloop
 endfacet
 facet normal 0.395645 0.918403 0
  outer loop
   vertex 0.325833 0.199137 0
   vertex 0.331301 0.196782 0.01
   vertex 0.331301 0.196782 0
  endloop
 endfacet
 facet normal 0.38077 0.92467 -0
  outer loop
   vertex 0.331301 0.196782 0
   vertex 0.331301 0.196782 0.01
   vertex 0.348182 0.18983 0.01
  endloop
 endfacet
 facet normal 0.38077 0.92467 0
  outer loop
   vertex 0.331301 0.196782 0
   vertex 0.348182 0.18983 0.01
   vertex 0.348182 0.18983 0
  endloop
 endfacet
 facet normal 0.357161 0.934043 -0
  outer loop
   vertex 0.348182 0.18983 0
   vertex 0.348182 0.18983 0.01
   vertex 0.364087 0.183749 0.01
  endloop
 endfacet
 facet normal 0.357161 0.934043 0
  outer loop
   vertex 0.348182 0.18983 0
   vertex 0.364087 0.183749 0.01
   vertex 0.364087 0.183749 0
  endloop
 endfacet
 facet normal 0.332992 0.942929 -0
  outer loop
   vertex 0.364087 0.183749 0
   vertex 0.364087 0.183749 0.01
   vertex 0.378299 0.17873 0.01
  endloop
 endfacet
 facet normal 0.332992 0.942929 0
  outer loop
   vertex 0.364087 0.183749 0
   vertex 0.378299 0.17873 0.01
   vertex 0.378299 0.17873 0
  endloop
 endfacet
 facet normal 0.308196 0.951323 -0
  outer loop
   vertex 0.378299 0.17873 0
   vertex 0.378299 0.17873 0.01
   vertex 0.391923 0.174316 0.01
  endloop
 endfacet
 facet normal 0.308196 0.951323 0
  outer loop
   vertex 0.378299 0.17873 0
   vertex 0.391923 0.174316 0.01
   vertex 0.391923 0.174316 0
  endloop
 endfacet
 facet normal 0.281859 0.959456 -0
  outer loop
   vertex 0.391923 0.174316 0
   vertex 0.391923 0.174316 0.01
   vertex 0.404981 0.17048 0.01
  endloop
 endfacet
 facet normal 0.281859 0.959456 0
  outer loop
   vertex 0.391923 0.174316 0
   vertex 0.404981 0.17048 0.01
   vertex 0.404981 0.17048 0
  endloop
 endfacet
 facet normal 0.253913 0.967227 -0
  outer loop
   vertex 0.404981 0.17048 0
   vertex 0.404981 0.17048 0.01
   vertex 0.417497 0.167194 0.01
  endloop
 endfacet
 facet normal 0.253913 0.967227 0
  outer loop
   vertex 0.404981 0.17048 0
   vertex 0.417497 0.167194 0.01
   vertex 0.417497 0.167194 0
  endloop
 endfacet
 facet normal 0.229685 0.973265 -0
  outer loop
   vertex 0.417497 0.167194 0
   vertex 0.417497 0.167194 0.01
   vertex 0.42526 0.165362 0.01
  endloop
 endfacet
 facet normal 0.229685 0.973265 0
  outer loop
   vertex 0.417497 0.167194 0
   vertex 0.42526 0.165362 0.01
   vertex 0.42526 0.165362 0
  endloop
 endfacet
 facet normal -0.0898439 0.995956 0
  outer loop
   vertex 0.269355 0.175382 0
   vertex 0.269355 0.175382 0.01
   vertex 0.272262 0.175644 0.01
  endloop
 endfacet
 facet normal -0.0898439 0.995956 0
  outer loop
   vertex 0.269355 0.175382 0
   vertex 0.272262 0.175644 0.01
   vertex 0.272262 0.175644 0
  endloop
 endfacet
 facet normal -0.22563 0.974213 0
  outer loop
   vertex 0.272262 0.175644 0
   vertex 0.272262 0.175644 0.01
   vertex 0.275114 0.176305 0.01
  endloop
 endfacet
 facet normal -0.22563 0.974213 0
  outer loop
   vertex 0.272262 0.175644 0
   vertex 0.275114 0.176305 0.01
   vertex 0.275114 0.176305 0
  endloop
 endfacet
 facet normal -0.342548 0.9395 0
  outer loop
   vertex 0.275114 0.176305 0
   vertex 0.275114 0.176305 0.01
   vertex 0.27808 0.177386 0.01
  endloop
 endfacet
 facet normal -0.342548 0.9395 0
  outer loop
   vertex 0.275114 0.176305 0
   vertex 0.27808 0.177386 0.01
   vertex 0.27808 0.177386 0
  endloop
 endfacet
 facet normal -0.440082 0.897958 0
  outer loop
   vertex 0.27808 0.177386 0
   vertex 0.27808 0.177386 0.01
   vertex 0.281225 0.178927 0.01
  endloop
 endfacet
 facet normal -0.440082 0.897958 0
  outer loop
   vertex 0.27808 0.177386 0
   vertex 0.281225 0.178927 0.01
   vertex 0.281225 0.178927 0
  endloop
 endfacet
 facet normal -0.516881 0.856057 0
  outer loop
   vertex 0.281225 0.178927 0
   vertex 0.281225 0.178927 0.01
   vertex 0.284647 0.180993 0.01
  endloop
 endfacet
 facet normal -0.516881 0.856057 0
  outer loop
   vertex 0.281225 0.178927 0
   vertex 0.284647 0.180993 0.01
   vertex 0.284647 0.180993 0
  endloop
 endfacet
 facet normal -0.576958 0.816774 0
  outer loop
   vertex 0.284647 0.180993 0
   vertex 0.284647 0.180993 0.01
   vertex 0.28947 0.1844 0.01
  endloop
 endfacet
 facet normal -0.576958 0.816774 0
  outer loop
   vertex 0.284647 0.180993 0
   vertex 0.28947 0.1844 0.01
   vertex 0.28947 0.1844 0
  endloop
 endfacet
 facet normal -0.604179 0.796849 0
  outer loop
   vertex 0.28947 0.1844 0
   vertex 0.28947 0.1844 0.01
   vertex 0.29578 0.189184 0.01
  endloop
 endfacet
 facet normal -0.604179 0.796849 0
  outer loop
   vertex 0.28947 0.1844 0
   vertex 0.29578 0.189184 0.01
   vertex 0.29578 0.189184 0
  endloop
 endfacet
 facet normal 0 -1 0
  outer loop
   vertex 0 0.273855 0
   vertex 0.269355 0.273855 0
   vertex 0 0.273855 0.01
  endloop
 endfacet
 facet normal 0 -1 0
  outer loop
   vertex 0 0.273855 0.01
   vertex 0.269355 0.273855 0
   vertex 0.269355 0.273855 0.01
  endloop
 endfacet
 facet normal 0.975455 0.220201 -0
  outer loop
   vertex 0.42526 0.283874 0
   vertex 0.424819 0.285825 0
   vertex 0.42526 0.283874 0.01
  endloop
 endfacet
 facet normal 0.975455 0.220201 0
  outer loop
   vertex 0.42526 0.283874 0.01
   vertex 0.424819 0.285825 0
   vertex 0.424819 0.285825 0.01
  endloop
 endfacet
 facet normal -0.0821076 0.996623 0
  outer loop
   vertex 0.321869 0.251236 0
   vertex 0.321869 0.251236 0.01
   vertex 0.323128 0.25134 0.01
  endloop
 endfacet
 facet normal -0.0821076 0.996623 0
  outer loop
   vertex 0.321869 0.251236 0
   vertex 0.323128 0.25134 0.01
   vertex 0.323128 0.25134 0
  endloop
 endfacet
 facet normal -0.249568 0.968357 0
  outer loop
   vertex 0.323128 0.25134 0
   vertex 0.323128 0.25134 0.01
   vertex 0.324333 0.251651 0.01
  endloop
 endfacet
 facet normal -0.249568 0.968357 0
  outer loop
   vertex 0.323128 0.25134 0
   vertex 0.324333 0.251651 0.01
   vertex 0.324333 0.251651 0
  endloop
 endfacet
 facet normal -0.392218 0.919872 0
  outer loop
   vertex 0.324333 0.251651 0
   vertex 0.324333 0.251651 0.01
   vertex 0.327354 0.252939 0.01
  endloop
 endfacet
 facet normal -0.392218 0.919872 0
  outer loop
   vertex 0.324333 0.251651 0
   vertex 0.327354 0.252939 0.01
   vertex 0.327354 0.252939 0
  endloop
 endfacet
 facet normal -0.386924 0.922112 0
  outer loop
   vertex 0.327354 0.252939 0
   vertex 0.327354 0.252939 0.01
   vertex 0.341429 0.258845 0.01
  endloop
 endfacet
 facet normal -0.386924 0.922112 0
  outer loop
   vertex 0.327354 0.252939 0
   vertex 0.341429 0.258845 0.01
   vertex 0.341429 0.258845 0
  endloop
 endfacet
 facet normal -0.366706 0.930337 0
  outer loop
   vertex 0.341429 0.258845 0
   vertex 0.341429 0.258845 0.01
   vertex 0.356567 0.264812 0.01
  endloop
 endfacet
 facet normal -0.366706 0.930337 0
  outer loop
   vertex 0.341429 0.258845 0
   vertex 0.356567 0.264812 0.01
   vertex 0.356567 0.264812 0
  endloop
 endfacet
 facet normal -0.349877 0.936796 0
  outer loop
   vertex 0.356567 0.264812 0
   vertex 0.356567 0.264812 0.01
   vertex 0.363799 0.267513 0.01
  endloop
 endfacet
 facet normal -0.349877 0.936796 0
  outer loop
   vertex 0.356567 0.264812 0
   vertex 0.363799 0.267513 0.01
   vertex 0.363799 0.267513 0
  endloop
 endfacet
 facet normal -0.331047 0.943614 0
  outer loop
   vertex 0.363799 0.267513 0
   vertex 0.363799 0.267513 0.01
   vertex 0.379533 0.273033 0.01
  endloop
 endfacet
 facet normal -0.331047 0.943614 0
  outer loop
   vertex 0.363799 0.267513 0
   vertex 0.379533 0.273033 0.01
   vertex 0.379533 0.273033 0
  endloop
 endfacet
 facet normal -0.304751 0.952432 0
  outer loop
   vertex 0.379533 0.273033 0
   vertex 0.379533 0.273033 0.01
   vertex 0.39312 0.27738 0.01
  endloop
 endfacet
 facet normal -0.304751 0.952432 0
  outer loop
   vertex 0.379533 0.273033 0
   vertex 0.39312 0.27738 0.01
   vertex 0.39312 0.27738 0
  endloop
 endfacet
 facet normal -0.278289 0.960497 0
  outer loop
   vertex 0.39312 0.27738 0
   vertex 0.39312 0.27738 0.01
   vertex 0.406092 0.281139 0.01
  endloop
 endfacet
 facet normal -0.278289 0.960497 0
  outer loop
   vertex 0.39312 0.27738 0
   vertex 0.406092 0.281139 0.01
   vertex 0.406092 0.281139 0
  endloop
 endfacet
 facet normal -0.248501 0.968632 0
  outer loop
   vertex 0.406092 0.281139 0
   vertex 0.406092 0.281139 0.01
   vertex 0.419969 0.284699 0.01
  endloop
 endfacet
 facet normal -0.248501 0.968632 0
  outer loop
   vertex 0.406092 0.281139 0
   vertex 0.419969 0.284699 0.01
   vertex 0.419969 0.284699 0
  endloop
 endfacet
 facet normal -0.226209 0.974079 0
  outer loop
   vertex 0.419969 0.284699 0
   vertex 0.419969 0.284699 0.01
   vertex 0.424819 0.285825 0.01
  endloop
 endfacet
 facet normal -0.226209 0.974079 0
  outer loop
   vertex 0.419969 0.284699 0
   vertex 0.424819 0.285825 0.01
   vertex 0.424819 0.285825 0
  endloop
 endfacet
 facet normal 0.229674 -0.973268 0
  outer loop
   vertex 0.42526 0.283874 0
   vertex 0.42526 0.283874 0.01
   vertex 0.417497 0.282042 0.01
  endloop
 endfacet
 facet normal 0.229674 -0.973268 0
  outer loop
   vertex 0.42526 0.283874 0
   vertex 0.417497 0.282042 0.01
   vertex 0.417497 0.282042 0
  endloop
 endfacet
 facet normal 0.253921 -0.967225 0
  outer loop
   vertex 0.417497 0.282042 0
   vertex 0.417497 0.282042 0.01
   vertex 0.404981 0.278757 0.01
  endloop
 endfacet
 facet normal 0.253921 -0.967225 0
  outer loop
   vertex 0.417497 0.282042 0
   vertex 0.404981 0.278757 0.01
   vertex 0.404981 0.278757 0
  endloop
 endfacet
 facet normal 0.281852 -0.959458 0
  outer loop
   vertex 0.404981 0.278757 0
   vertex 0.404981 0.278757 0.01
   vertex 0.391923 0.274921 0.01
  endloop
 endfacet
 facet normal 0.281852 -0.959458 0
  outer loop
   vertex 0.404981 0.278757 0
   vertex 0.391923 0.274921 0.01
   vertex 0.391923 0.274921 0
  endloop
 endfacet
 facet normal 0.308195 -0.951323 0
  outer loop
   vertex 0.391923 0.274921 0
   vertex 0.391923 0.274921 0.01
   vertex 0.378299 0.270507 0.01
  endloop
 endfacet
 facet normal 0.308195 -0.951323 0
  outer loop
   vertex 0.391923 0.274921 0
   vertex 0.378299 0.270507 0.01
   vertex 0.378299 0.270507 0
  endloop
 endfacet
 facet normal 0.332992 -0.942929 0
  outer loop
   vertex 0.378299 0.270507 0
   vertex 0.378299 0.270507 0.01
   vertex 0.364087 0.265488 0.01
  endloop
 endfacet
 facet normal 0.332992 -0.942929 0
  outer loop
   vertex 0.378299 0.270507 0
   vertex 0.364087 0.265488 0.01
   vertex 0.364087 0.265488 0
  endloop
 endfacet
 facet normal 0.357161 -0.934043 0
  outer loop
   vertex 0.364087 0.265488 0
   vertex 0.364087 0.265488 0.01
   vertex 0.348182 0.259406 0.01
  endloop
 endfacet
 facet normal 0.357161 -0.934043 0
  outer loop
   vertex 0.364087 0.265488 0
   vertex 0.348182 0.259406 0.01
   vertex 0.348182 0.259406 0
  endloop
 endfacet
 facet normal 0.38077 -0.92467 0
  outer loop
   vertex 0.348182 0.259406 0
   vertex 0.348182 0.259406 0.01
   vertex 0.331301 0.252455 0.01
  endloop
 endfacet
 facet normal 0.38077 -0.92467 0
  outer loop
   vertex 0.348182 0.259406 0
   vertex 0.331301 0.252455 0.01
   vertex 0.331301 0.252455 0
  endloop
 endfacet
 facet normal 0.39566 -0.918397 0
  outer loop
   vertex 0.331301 0.252455 0
   vertex 0.331301 0.252455 0.01
   vertex 0.325833 0.250099 0.01
  endloop
 endfacet
 facet normal 0.39566 -0.918397 0
  outer loop
   vertex 0.331301 0.252455 0
   vertex 0.325833 0.250099 0.01
   vertex 0.325833 0.250099 0
  endloop
 endfacet
 facet normal 0.340637 -0.940195 0
  outer loop
   vertex 0.325833 0.250099 0
   vertex 0.325833 0.250099 0.01
   vertex 0.32437 0.249569 0.01
  endloop
 endfacet
 facet normal 0.340637 -0.940195 0
  outer loop
   vertex 0.325833 0.250099 0
   vertex 0.32437 0.249569 0.01
   vertex 0.32437 0.249569 0
  endloop
 endfacet
 facet normal 0.186761 -0.982405 0
  outer loop
   vertex 0.32437 0.249569 0
   vertex 0.32437 0.249569 0.01
   vertex 0.322914 0.249292 0.01
  endloop
 endfacet
 facet normal 0.186761 -0.982405 0
  outer loop
   vertex 0.32437 0.249569 0
   vertex 0.322914 0.249292 0.01
   vertex 0.322914 0.249292 0
  endloop
 endfacet
 facet normal 0.0211082 -0.999777 0
  outer loop
   vertex 0.322914 0.249292 0
   vertex 0.322914 0.249292 0.01
   vertex 0.320901 0.24925 0.01
  endloop
 endfacet
 facet normal 0.0211082 -0.999777 0
  outer loop
   vertex 0.322914 0.249292 0
   vertex 0.320901 0.24925 0.01
   vertex 0.320901 0.24925 0
  endloop
 endfacet
 facet normal -0.0812821 -0.996691 0
  outer loop
   vertex 0.320901 0.24925 0
   vertex 0.320901 0.24925 0.01
   vertex 0.316887 0.249577 0.01
  endloop
 endfacet
 facet normal -0.0812821 -0.996691 0
  outer loop
   vertex 0.320901 0.24925 0
   vertex 0.316887 0.249577 0.01
   vertex 0.316887 0.249577 0
  endloop
 endfacet
 facet normal -0.189333 -0.981913 0
  outer loop
   vertex 0.316887 0.249577 0
   vertex 0.316887 0.249577 0.01
   vertex 0.312932 0.25034 0.01
  endloop
 endfacet
 facet normal -0.189333 -0.981913 0
  outer loop
   vertex 0.316887 0.249577 0
   vertex 0.312932 0.25034 0.01
   vertex 0.312932 0.25034 0
  endloop
 endfacet
 facet normal -0.295181 -0.955441 0
  outer loop
   vertex 0.312932 0.25034 0
   vertex 0.312932 0.25034 0.01
   vertex 0.309084 0.251529 0.01
  endloop
 endfacet
 facet normal -0.295181 -0.955441 0
  outer loop
   vertex 0.312932 0.25034 0
   vertex 0.309084 0.251529 0.01
   vertex 0.309084 0.251529 0
  endloop
 endfacet
 facet normal -0.397461 -0.917619 0
  outer loop
   vertex 0.309084 0.251529 0
   vertex 0.309084 0.251529 0.01
   vertex 0.305388 0.25313 0.01
  endloop
 endfacet
 facet normal -0.397461 -0.917619 0
  outer loop
   vertex 0.309084 0.251529 0
   vertex 0.305388 0.25313 0.01
   vertex 0.305388 0.25313 0
  endloop
 endfacet
 facet normal -0.495029 -0.868877 0
  outer loop
   vertex 0.305388 0.25313 0
   vertex 0.305388 0.25313 0.01
   vertex 0.301888 0.255123 0.01
  endloop
 endfacet
 facet normal -0.495029 -0.868877 0
  outer loop
   vertex 0.305388 0.25313 0
   vertex 0.301888 0.255123 0.01
   vertex 0.301888 0.255123 0
  endloop
 endfacet
 facet normal -0.586716 -0.809793 0
  outer loop
   vertex 0.301888 0.255123 0
   vertex 0.301888 0.255123 0.01
   vertex 0.298626 0.257487 0.01
  endloop
 endfacet
 facet normal -0.586716 -0.809793 0
  outer loop
   vertex 0.301888 0.255123 0
   vertex 0.298626 0.257487 0.01
   vertex 0.298626 0.257487 0
  endloop
 endfacet
 facet normal -0.66947 -0.742839 0
  outer loop
   vertex 0.298626 0.257487 0
   vertex 0.298626 0.257487 0.01
   vertex 0.29578 0.260052 0.01
  endloop
 endfacet
 facet normal -0.66947 -0.742839 0
  outer loop
   vertex 0.298626 0.257487 0
   vertex 0.29578 0.260052 0.01
   vertex 0.29578 0.260052 0
  endloop
 endfacet
 facet normal -0.604179 -0.796849 0
  outer loop
   vertex 0.29578 0.260052 0
   vertex 0.29578 0.260052 0.01
   vertex 0.28947 0.264837 0.01
  endloop
 endfacet
 facet normal -0.604179 -0.796849 0
  outer loop
   vertex 0.29578 0.260052 0
   vertex 0.28947 0.264837 0.01
   vertex 0.28947 0.264837 0
  endloop
 endfacet
 facet normal -0.576955 -0.816776 0
  outer loop
   vertex 0.28947 0.264837 0
   vertex 0.28947 0.264837 0.01
   vertex 0.284647 0.268243 0.01
  endloop
 endfacet
 facet normal -0.576955 -0.816776 0
  outer loop
   vertex 0.28947 0.264837 0
   vertex 0.284647 0.268243 0.01
   vertex 0.284647 0.268243 0
  endloop
 endfacet
 facet normal -0.516881 -0.856057 0
  outer loop
   vertex 0.284647 0.268243 0
   vertex 0.284647 0.268243 0.01
   vertex 0.281225 0.270309 0.01
  endloop
 endfacet
 facet normal -0.516881 -0.856057 0
  outer loop
   vertex 0.284647 0.268243 0
   vertex 0.281225 0.270309 0.01
   vertex 0.281225 0.270309 0
  endloop
 endfacet
 facet normal -0.440082 -0.897958 0
  outer loop
   vertex 0.281225 0.270309 0
   vertex 0.281225 0.270309 0.01
   vertex 0.27808 0.271851 0.01
  endloop
 endfacet
 facet normal -0.440082 -0.897958 0
  outer loop
   vertex 0.281225 0.270309 0
   vertex 0.27808 0.271851 0.01
   vertex 0.27808 0.271851 0
  endloop
 endfacet
 facet normal -0.342556 -0.939497 0
  outer loop
   vertex 0.27808 0.271851 0
   vertex 0.27808 0.271851 0.01
   vertex 0.275114 0.272932 0.01
  endloop
 endfacet
 facet normal -0.342556 -0.939497 0
  outer loop
   vertex 0.27808 0.271851 0
   vertex 0.275114 0.272932 0.01
   vertex 0.275114 0.272932 0
  endloop
 endfacet
 facet normal -0.225625 -0.974214 0
  outer loop
   vertex 0.275114 0.272932 0
   vertex 0.275114 0.272932 0.01
   vertex 0.272262 0.273592 0.01
  endloop
 endfacet
 facet normal -0.225625 -0.974214 0
  outer loop
   vertex 0.275114 0.272932 0
   vertex 0.272262 0.273592 0.01
   vertex 0.272262 0.273592 0
  endloop
 endfacet
 facet normal -0.0898439 -0.995956 0
  outer loop
   vertex 0.272262 0.273592 0
   vertex 0.272262 0.273592 0.01
   vertex 0.269355 0.273855 0.01
  endloop
 endfacet
 facet normal -0.0898439 -0.995956 0
  outer loop
   vertex 0.272262 0.273592 0
   vertex 0.269355 0.273855 0.01
   vertex 0.269355 0.273855 0
  endloop
 endfacet
 facet normal 1 0 0
  outer loop
   vertex 0 0.175382 0
   vertex 0 0.273855 0
   vertex 0 0.175382 0.01
  endloop
 endfacet
 facet normal 1 -0 0
  outer loop
   vertex 0 0.175382 0.01
   vertex 0 0.273855 0
   vertex 0 0.273855 0.01
  endloop
 endfacet
 facet normal 0 1 -0
  outer loop
   vertex 0.269355 0.175382 0
   vertex 0 0.175382 0
   vertex 0.269355 0.175382 0.01
  endloop
 endfacet
 facet normal 0 1 0
  outer loop
   vertex 0.269355 0.175382 0.01
   vertex 0 0.175382 0
   vertex 0 0.175382 0.01
  endloop
 endfacet
 facet normal 0.975455 -0.220201 0
  outer loop
   vertex 0.424819 0.163411 0
   vertex 0.42526 0.165362 0
   vertex 0.424819 0.163411 0.01
  endloop
 endfacet
 facet normal 0.975455 -0.220201 0
  outer loop
   vertex 0.424819 0.163411 0.01
   vertex 0.42526 0.165362 0
   vertex 0.42526 0.165362 0.01
  endloop
 endfacet
 facet normal -0.223286 -0.974753 0
  outer loop
   vertex 0.424819 0.163411 0
   vertex 0.424819 0.163411 0.01
   vertex 0.422355 0.163976 0.01
  endloop
 endfacet
 facet normal -0.223286 -0.974753 0
  outer loop
   vertex 0.424819 0.163411 0
   vertex 0.422355 0.163976 0.01
   vertex 0.422355 0.163976 0
  endloop
 endfacet
 facet normal -0.241192 -0.970477 0
  outer loop
   vertex 0.422355 0.163976 0
   vertex 0.422355 0.163976 0.01
   vertex 0.409959 0.167057 0.01
  endloop
 endfacet
 facet normal -0.241192 -0.970477 0
  outer loop
   vertex 0.422355 0.163976 0
   vertex 0.409959 0.167057 0.01
   vertex 0.409959 0.167057 0
  endloop
 endfacet
 facet normal -0.268282 -0.96334 0
  outer loop
   vertex 0.409959 0.167057 0
   vertex 0.409959 0.167057 0.01
   vertex 0.398599 0.17022 0.01
  endloop
 endfacet
 facet normal -0.268282 -0.96334 0
  outer loop
   vertex 0.409959 0.167057 0
   vertex 0.398599 0.17022 0.01
   vertex 0.398599 0.17022 0
  endloop
 endfacet
 facet normal -0.293921 -0.95583 0
  outer loop
   vertex 0.398599 0.17022 0
   vertex 0.398599 0.17022 0.01
   vertex 0.385269 0.174319 0.01
  endloop
 endfacet
 facet normal -0.293921 -0.95583 0
  outer loop
   vertex 0.398599 0.17022 0
   vertex 0.385269 0.174319 0.01
   vertex 0.385269 0.174319 0
  endloop
 endfacet
 facet normal -0.320442 -0.947268 0
  outer loop
   vertex 0.385269 0.174319 0
   vertex 0.385269 0.174319 0.01
   vertex 0.370263 0.179395 0.01
  endloop
 endfacet
 facet normal -0.320442 -0.947268 0
  outer loop
   vertex 0.385269 0.174319 0
   vertex 0.370263 0.179395 0.01
   vertex 0.370263 0.179395 0
  endloop
 endfacet
 facet normal -0.34538 -0.938463 0
  outer loop
   vertex 0.370263 0.179395 0
   vertex 0.370263 0.179395 0.01
   vertex 0.355711 0.184751 0.01
  endloop
 endfacet
 facet normal -0.34538 -0.938463 0
  outer loop
   vertex 0.370263 0.179395 0
   vertex 0.355711 0.184751 0.01
   vertex 0.355711 0.184751 0
  endloop
 endfacet
 facet normal -0.367336 -0.930088 0
  outer loop
   vertex 0.355711 0.184751 0
   vertex 0.355711 0.184751 0.01
   vertex 0.341429 0.190391 0.01
  endloop
 endfacet
 facet normal -0.367336 -0.930088 0
  outer loop
   vertex 0.355711 0.184751 0
   vertex 0.341429 0.190391 0.01
   vertex 0.341429 0.190391 0
  endloop
 endfacet
 facet normal -0.386924 -0.922112 0
  outer loop
   vertex 0.341429 0.190391 0
   vertex 0.341429 0.190391 0.01
   vertex 0.327354 0.196298 0.01
  endloop
 endfacet
 facet normal -0.386924 -0.922112 0
  outer loop
   vertex 0.341429 0.190391 0
   vertex 0.327354 0.196298 0.01
   vertex 0.327354 0.196298 0
  endloop
 endfacet
 facet normal -0.392218 -0.919872 0
  outer loop
   vertex 0.327354 0.196298 0
   vertex 0.327354 0.196298 0.01
   vertex 0.324333 0.197586 0.01
  endloop
 endfacet
 facet normal -0.392218 -0.919872 0
  outer loop
   vertex 0.327354 0.196298 0
   vertex 0.324333 0.197586 0.01
   vertex 0.324333 0.197586 0
  endloop
 endfacet
 facet normal -0.249488 -0.968378 0
  outer loop
   vertex 0.324333 0.197586 0
   vertex 0.324333 0.197586 0.01
   vertex 0.323128 0.197896 0.01
  endloop
 endfacet
 facet normal -0.249488 -0.968378 0
  outer loop
   vertex 0.324333 0.197586 0
   vertex 0.323128 0.197896 0.01
   vertex 0.323128 0.197896 0
  endloop
 endfacet
 facet normal -0.0821916 -0.996617 0
  outer loop
   vertex 0.323128 0.197896 0
   vertex 0.323128 0.197896 0.01
   vertex 0.321869 0.198 0.01
  endloop
 endfacet
 facet normal -0.0821916 -0.996617 0
  outer loop
   vertex 0.323128 0.197896 0
   vertex 0.321869 0.198 0.01
   vertex 0.321869 0.198 0
  endloop
 endfacet
 facet normal -1 0 0
  outer loop
   vertex 1.57187 0.449237 0
   vertex 1.57187 0 0
   vertex 1.57187 0.449237 0.01
  endloop
 endfacet
 facet normal -1 -0 0
  outer loop
   vertex 1.57187 0.449237 0.01
   vertex 1.57187 0 0
   vertex 1.57187 0 0.01
  endloop
 endfacet
 facet normal 0 -1 0
  outer loop
   vertex 0.321869 0.449237 0
   vertex 1.57187 0.449237 0
   vertex 0.321869 0.449237 0.01
  endloop
 endfacet
 facet normal 0 -1 0
  outer loop
   vertex 0.321869 0.449237 0.01
   vertex 1.57187 0.449237 0
   vertex 1.57187 0.449237 0.01
  endloop
 endfacet
 facet normal 1 0 0
  outer loop
   vertex 0.321869 0.251236 0
   vertex 0.321869 0.449237 0
   vertex 0.321869 0.251236 0.01
  endloop
 endfacet
 facet normal 1 -0 0
  outer loop
   vertex 0.321869 0.251236 0.01
   vertex 0.321869 0.449237 0
   vertex 0.321869 0.449237 0.01
  endloop
 endfacet
endsolid KeroLOXEngine_WorkingCopy3
